<?xml version="1.0" standalone="no"?><!DOCTYPE svg PUBLIC "-//W3C//DTD SVG 1.1//EN" "http://www.w3.org/Graphics/SVG/1.1/DTD/svg11.dtd"><svg class="icon" width="200px" height="200.00px" viewBox="0 0 1024 1024" version="1.1" xmlns="http://www.w3.org/2000/svg"><path  d="M924.4 686.9C948 631.5 960.1 572 960 511.8c0-247-201-448-448-448s-448 201-448 448 201 448 448 448c149.1 0 281.3-73.2 362.8-185.6-77-38.3-203.9-101.3-282.1-139.4-37.3 42.5-92.4 85.2-154.7 103.7-39.1 11.6-74.4 16.1-111.3 8.5-36.5-7.5-63.4-24.6-79.1-41.7-8-8.7-17.2-19.9-23.8-33.1 0.6 1.7 1 2.7 1 2.7s-3.8-6.6-6.7-17.1c-1.5-5.2-2.5-10.5-2.9-15.9-0.3-3.8-0.4-7.6-0.2-11.4-0.4-7.1 0.1-14.1 1.5-21.1 3.7-17.7 11.2-38.3 30.8-57.5 42.9-42 100.4-44.3 130.2-44.1 44.1 0.3 120.8 19.6 185.3 42.4 17.9-38.1 29.4-78.8 36.7-106H331.1v-29H469v-58H302.1v-29H469v-58c0-8 1.6-14.5 14.5-14.5h65.3v72.5h181.4v29H548.8v58h145.1s-14.6 81.2-60.1 161.3c101 36.2 243.3 91.8 290.6 110.4zM344.9 549.6c-35.4 1.5-60.8 8.8-79.3 18.6-10.6 8.5-21.9 20.9-25.2 36.7-4.5 21.6-0.9 48.6 19.9 69.8 25.2 25.7 63.6 32.7 80.1 33.9 45 3.3 92.9-19 129-44.5 14.2-10 38.4-30.1 61.6-61-51.9-26.7-116.7-56.4-186.1-53.5z" /></svg>